<svg width="20" height="18" viewBox="0 0 20 18" fill="none" xmlns="http://www.w3.org/2000/svg">
<path fill-rule="evenodd" clip-rule="evenodd" d="M13.9202 11.7988C13.9725 11.5407 14 11.2736 14 11C14 8.79086 12.2091 7 10 7C9.72645 7 9.45931 7.02746 9.20119 7.07977L13.9202 11.7988ZM6.66676 8.78799C6.24547 9.42156 6 10.1821 6 11C6 13.2091 7.79086 15 10 15C10.8179 15 11.5784 14.7545 12.212 14.3332L10.7381 12.8594C10.5098 12.9501 10.2607 13 10 13C8.89543 13 8 12.1046 8 11C8 10.7393 8.04988 10.4902 8.14063 10.2619L6.66676 8.78799Z" fill="#33363F"/>
<path fill-rule="evenodd" clip-rule="evenodd" d="M14.5191 16.6405L13.0499 15.1712C12.0776 15.6805 11.0477 16 10 16C8.47421 16 6.98616 15.3224 5.65914 14.3677C4.34002 13.4186 3.26409 12.2558 2.58386 11.43C2.48409 11.3088 2.40958 11.2182 2.34785 11.1385C2.29899 11.0754 2.26786 11.0315 2.24756 11C2.26786 10.9685 2.29899 10.9246 2.34785 10.8615C2.40958 10.7818 2.48409 10.6912 2.58386 10.57C3.24928 9.76217 4.29335 8.63187 5.57331 7.69463L4.14458 6.2659C2.79643 7.29616 1.72247 8.47005 1.04009 9.29852C1.01651 9.32716 0.991924 9.35661 0.966622 9.38692L0.966605 9.38694C0.653181 9.76236 0.229736 10.2696 0.229736 11C0.229736 11.7304 0.65318 12.2376 0.966604 12.6131L0.966823 12.6133C0.992053 12.6435 1.01657 12.6729 1.04009 12.7015C1.77996 13.5998 2.98018 14.9041 4.49111 15.9912C5.99416 17.0725 7.89008 18 10 18C11.67 18 13.206 17.419 14.5191 16.6405ZM6.80682 4.6855C7.79062 4.26871 8.86431 4 10 4C12.1099 4 14.0059 4.92747 15.5089 6.00885C17.0198 7.0959 18.2201 8.40025 18.9599 9.29853C18.9835 9.32715 19.0081 9.35659 19.0334 9.38689L19.0334 9.38694C19.3468 9.76236 19.7703 10.2696 19.7703 11C19.7703 11.7304 19.3468 12.2376 19.0334 12.6131C19.0081 12.6434 18.9835 12.6728 18.9599 12.7015C18.4733 13.2923 17.7874 14.0589 16.945 14.8237L15.529 13.4077C16.3089 12.708 16.9539 11.9912 17.4162 11.43C17.5159 11.3088 17.5904 11.2182 17.6522 11.1385C17.701 11.0754 17.7322 11.0315 17.7525 11C17.7322 10.9685 17.701 10.9246 17.6522 10.8615C17.5904 10.7818 17.5159 10.6912 17.4162 10.57C16.7359 9.74418 15.66 8.58138 14.3409 7.63233C13.0139 6.6776 11.5258 6 10 6C9.449 6 8.90292 6.08837 8.36756 6.24624L6.80682 4.6855Z" fill="#33363F"/>
<path d="M3 1L19 17" stroke="#33363F" stroke-width="2"/>
</svg>
